<?xml version="1.0" standalone="no"?><!DOCTYPE svg PUBLIC "-//W3C//DTD SVG 1.1//EN" "http://www.w3.org/Graphics/SVG/1.1/DTD/svg11.dtd"><svg t="1535440528603" class="icon" style="" viewBox="0 0 1024 1024" version="1.1" xmlns="http://www.w3.org/2000/svg" p-id="4296" xmlns:xlink="http://www.w3.org/1999/xlink" width="32" height="32"><defs><style type="text/css"></style></defs><path d="M512 97.28c228.67456 0 414.72 186.04032 414.72 414.72 0 228.67456-186.04544 414.72-414.72 414.72-228.67968 0-414.72-186.04544-414.72-414.72 0-228.67968 186.04032-414.72 414.72-414.72m0-51.2C254.67904 46.08 46.08 254.67904 46.08 512s208.59904 465.92 465.92 465.92 465.92-208.59904 465.92-465.92-208.59904-465.92-465.92-465.92z" fill="#0e932e" p-id="4297"></path><path d="M736.82944 373.69856a25.58976 25.58976 0 0 0-36.1984 0L435.71712 638.6176l-112.34304-112.34304a25.6 25.6 0 1 0-36.20352 36.1984l129.82272 129.8176a25.45664 25.45664 0 0 0 18.72896 7.43936 25.472 25.472 0 0 0 18.72896-7.43936l282.38336-282.38848a25.6 25.6 0 0 0-0.00512-36.20352z" fill="#0e932e" p-id="4298"></path></svg>