<?xml version="1.0" standalone="no"?><!DOCTYPE svg PUBLIC "-//W3C//DTD SVG 1.1//EN" "http://www.w3.org/Graphics/SVG/1.1/DTD/svg11.dtd"><svg t="1535440433726" class="icon" style="" viewBox="0 0 1024 1024" version="1.1" xmlns="http://www.w3.org/2000/svg" p-id="3492" xmlns:xlink="http://www.w3.org/1999/xlink" width="32" height="32"><defs><style type="text/css"></style></defs><path d="M510.898 955.504c-59.943 0-118.105-11.745-172.868-34.907-52.885-22.368-100.376-54.386-141.154-95.164-40.778-40.78-72.796-88.27-95.164-141.154-23.163-54.764-34.908-112.925-34.908-172.867 0-59.944 11.745-118.105 34.908-172.869 22.368-52.884 54.386-100.376 95.164-141.153 40.779-40.78 88.27-72.796 141.154-95.166 54.763-23.162 112.925-34.907 172.868-34.907s118.105 11.745 172.868 34.907c52.886 22.369 100.376 54.387 141.154 95.166 40.779 40.777 72.796 88.269 95.164 141.153 23.164 54.764 34.907 112.925 34.907 172.869 0 59.943-11.744 118.104-34.907 172.867-22.368 52.885-54.385 100.376-95.164 141.154s-88.27 72.796-141.154 95.164c-54.763 23.164-112.925 34.907-172.868 34.907z m0-847.255c-222.304 0-403.161 180.858-403.161 403.162 0 222.304 180.857 403.16 403.16 403.16S914.06 733.716 914.06 511.412c0-222.304-180.857-403.162-403.161-403.162z" p-id="3493" fill="#707070"></path></svg>